<svg width="58" height="47" viewBox="0 0 58 47" fill="none" xmlns="http://www.w3.org/2000/svg">
<path d="M50.9527 45.0012C59.3487 34.4344 52.9829 18.9878 39.2046 18.2501C38.5147 18.1855 37.7434 18.2516 37.0788 18.2932C37.2031 27.3394 32.9074 37.1828 25.517 39.6746C18.8475 41.8879 15.1833 35.4522 17.9357 29.9986C21.2323 23.5231 27.0387 18.1482 34.1035 16.1797C33.5381 10.4844 30.7599 5.41252 24.6185 3.69453C14.2678 0.820402 3.49364 10.3681 1.98841 20.127C1.89565 21.1567 0.302718 21.0767 0.395479 20.0469C0.987318 6.91393 16.7395 -3.44788 28.9628 2.5787C33.6881 4.96002 36.2277 9.97503 36.8996 15.6457C44.3233 14.7146 51.415 19.014 55.2418 25.1879C59.6406 32.3502 57.6002 40.328 52.6096 46.2987C51.827 47.264 50.2765 45.9415 50.9527 45.0012ZM23.7754 26.1845C21.8343 28.4256 19.6994 31.2717 19.4212 34.3609C19.1176 37.3438 23.1813 37.4134 24.9117 37.1254C27.0685 36.7391 28.6338 34.809 29.798 33.0835C32.4208 29.4527 34.1637 24.0083 34.2824 18.8272C30.2016 20.1062 26.631 23.0599 23.7754 26.1845Z" fill="#6366F1"/>
</svg>
